<?xml version="1.0" encoding="UTF-8"?>
<svg width="16px" height="16px" viewBox="0 0 16 16" version="1.1" xmlns="http://www.w3.org/2000/svg" xmlns:xlink="http://www.w3.org/1999/xlink">
    <title>热点</title>
    <g id="最终版" stroke="none" stroke-width="1" fill="none" fill-rule="evenodd">
        <g id="搜索下拉" transform="translate(-469.000000, -945.000000)">
            <g id="搜索下拉框备份-4" transform="translate(310.000000, 862.000000)">
                <g id="历史记录" transform="translate(0.000000, 77.000000)">
                    <g id="热点" transform="translate(159.000000, 6.000000)">
                        <rect id="矩形" x="0" y="0" width="16" height="16"></rect>
                        <path d="M5.35510704,14.9595744 C5.99663888,15.1604316 6.19403329,14.55786 5.94729028,14.3570028 C5.10836402,13.7544313 4.66422659,12.6999311 5.00966681,11.6956451 C5.30575843,10.5909306 6.19403329,10.1892162 6.19403329,8.53214446 C6.19403329,8.53214446 7.27970257,9.33557321 7.03295955,10.5909306 C8.11862883,9.33557321 7.62514279,7.72871572 7.42774838,6.97550127 C10.1419216,8.43171587 12.4613059,11.6454308 9.74713274,14.3570028 C9.45104112,14.6080743 9.74713274,15.1102173 10.2406188,14.9595744 C17.5935607,10.6913592 12.0665171,4.31414356 11.079545,3.56092912 C11.3756367,4.31414356 11.4743339,5.51928668 10.832802,6.12185823 C9.69778414,1.85364304 6.98361095,1 6.98361095,1 C7.23035397,3.15921475 5.74989586,5.56950097 4.26943776,7.37721565 C4.22008916,6.47335831 4.17074055,5.87078675 3.72660312,5.06735801 C3.62790592,6.6240012 2.39419083,7.92957291 2.09809921,9.53643039 C1.70331038,11.6956451 2.44353943,13.2522883 5.35510704,14.9595744 Z" id="路径" fill="#E5414C" fill-rule="nonzero"></path>
                    </g>
                </g>
            </g>
        </g>
    </g>
</svg>