<?xml version="1.0" standalone="no"?><!DOCTYPE svg PUBLIC "-//W3C//DTD SVG 1.1//EN" "http://www.w3.org/Graphics/SVG/1.1/DTD/svg11.dtd"><svg t="1691137111982" class="icon" viewBox="0 0 1024 1024" version="1.1" xmlns="http://www.w3.org/2000/svg" p-id="3143" xmlns:xlink="http://www.w3.org/1999/xlink" width="200" height="200"><path d="M0 43.574468v290.496454c0 21.787234 21.787234 43.574468 43.574468 43.574468s43.574468-14.524823 43.574468-43.574468V145.248227l232.397163 254.184397c14.524823 14.524823 43.574468 14.524823 58.099291 0 14.524823-14.524823 14.524823-43.574468 0-58.099291L130.723404 79.886525h203.347518c21.787234 0 43.574468-14.524823 43.574468-43.574468S355.858156 0 334.070922 0h-290.496454C36.312057 0 21.787234 0 14.524823 7.262411 7.262411 21.787234 0 29.049645 0 43.574468zM1016.737589 43.574468v290.496454c0 21.787234-21.787234 43.574468-43.574468 43.574468s-43.574468-14.524823-43.574469-43.574468V145.248227L697.191489 406.695035c-14.524823 14.524823-43.574468 14.524823-58.09929 0-14.524823-14.524823-14.524823-43.574468 0-58.09929l246.921985-268.70922H682.666667c-21.787234 0-43.574468-14.524823-43.574468-43.574468s21.787234-36.312057 43.574468-36.312057h290.496454c7.262411 0 21.787234 0 29.049645 7.262411 7.262411 14.524823 14.524823 21.787234 14.524823 36.312057zM0 973.163121v-290.496454c0-21.787234 21.787234-43.574468 43.574468-43.574468s43.574468 14.524823 43.574468 43.574468V871.489362l232.397163-254.184397c14.524823-14.524823 43.574468-14.524823 58.099291 0 14.524823 14.524823 14.524823 43.574468 0 58.09929L130.723404 944.113475h203.347518c21.787234 0 43.574468 14.524823 43.574468 43.574468s-21.787234 29.049645-43.574468 29.049646h-290.496454c-7.262411 0-21.787234 0-29.049645-7.262412-7.262411-14.524823-14.524823-21.787234-14.524823-36.312056zM1016.737589 973.163121v-290.496454c0-21.787234-21.787234-43.574468-43.574468-43.574468s-43.574468 14.524823-43.574469 43.574468V871.489362L697.191489 610.042553c-14.524823-14.524823-43.574468-14.524823-58.09929 0-14.524823 14.524823-14.524823 43.574468 0 58.099291l246.921985 268.70922H682.666667c-21.787234 0-43.574468 14.524823-43.574468 43.574468 0 21.787234 21.787234 43.574468 43.574468 43.574468h290.496454c7.262411 0 21.787234 0 29.049645-7.262411 7.262411-21.787234 14.524823-29.049645 14.524823-43.574468z" p-id="3144" fill="#707070"></path></svg>