<?xml version="1.0" standalone="no"?><!DOCTYPE svg PUBLIC "-//W3C//DTD SVG 1.1//EN" "http://www.w3.org/Graphics/SVG/1.1/DTD/svg11.dtd"><svg t="1691137425819" class="icon" viewBox="0 0 1024 1024" version="1.1" xmlns="http://www.w3.org/2000/svg" p-id="18974" xmlns:xlink="http://www.w3.org/1999/xlink" width="200" height="200"><path d="M608 352c35.346 0 64 28.654 64 64v192c0 35.346-28.654 64-64 64h-192c-35.346 0-64-28.654-64-64v-192c0-35.346 28.654-64 64-64h192m0-64h-192c-17.252 0-34.021 3.393-49.843 10.086-15.25 6.449-28.933 15.67-40.667 27.404s-20.955 25.417-27.405 40.666c-6.691 15.822-10.085 32.592-10.085 49.844v192c0 17.252 3.394 34.021 10.085 49.844 6.45 15.249 15.671 28.932 27.405 40.666s25.417 20.955 40.667 27.404c15.821 6.693 32.591 10.086 49.843 10.086h192c17.252 0 34.021-3.393 49.843-10.086 15.25-6.449 28.933-15.67 40.667-27.404s20.955-25.417 27.404-40.666c6.692-15.822 10.086-32.592 10.086-49.844v-192c0-17.252-3.394-34.021-10.086-49.844-6.449-15.249-15.67-28.932-27.404-40.666s-25.417-20.955-40.667-27.404c-15.822-6.693-32.591-10.086-49.843-10.086zM192 896h196v64h-196c-17.25 0-34.02-3.39-49.84-10.09a127.512 127.512 0 0 1-40.67-27.4 127.651 127.651 0 0 1-27.41-40.67c-6.69-15.82-10.08-32.59-10.08-49.84v-196h64v196c0 35.35 28.65 64 64 64zM960 636v196c0 17.25-3.39 34.02-10.08 49.84a127.705 127.705 0 0 1-27.41 40.67 127.501 127.501 0 0 1-40.67 27.4c-15.82 6.7-32.59 10.09-49.84 10.09h-196v-64h196c35.35 0 64-28.65 64-64v-196h64zM192 64h196v64h-196c-35.35 0-64 28.65-64 64v196h-64v-196c0-17.25 3.39-34.02 10.08-49.84a127.651 127.651 0 0 1 27.41-40.67 127.501 127.501 0 0 1 40.67-27.4c15.82-6.7 32.59-10.09 49.84-10.09zM960 192v196h-64v-196c0-35.35-28.65-64-64-64h-196v-64h196c17.25 0 34.02 3.39 49.84 10.09a127.512 127.512 0 0 1 40.67 27.4 127.694 127.694 0 0 1 27.41 40.67c6.69 15.82 10.08 32.59 10.08 49.84z" p-id="18975" fill="#707070"></path></svg>