<?xml version="1.0" standalone="no"?><!DOCTYPE svg PUBLIC "-//W3C//DTD SVG 1.1//EN" "http://www.w3.org/Graphics/SVG/1.1/DTD/svg11.dtd"><svg t="1690532166247" class="icon" viewBox="0 0 1024 1024" version="1.1" xmlns="http://www.w3.org/2000/svg" p-id="8456" xmlns:xlink="http://www.w3.org/1999/xlink" width="200" height="200"><path d="M985.761841 780.833308H330.179433a29.771972 29.771972 0 0 0-29.771972 29.891779v107.286923l-226.075293-226.91394 226.075293-226.973844v48.342015c0 16.533328 13.35845 29.891778 29.771972 29.891778h327.791204v89.735238a29.951682 29.951682 0 0 0 29.771972 29.951682 29.831875 29.831875 0 0 0 21.085984-8.805795l297.959329-299.157396a29.951682 29.951682 0 0 0 0-42.291775L708.828593 12.632577a29.831875 29.831875 0 0 0-50.857956 21.145887v149.578699H32.1602a29.831875 29.831875 0 0 0-29.771971 29.951681c0 16.533328 13.298547 29.891778 29.771971 29.891778h655.582409a29.771972 29.771972 0 0 0 29.771971-29.891778V106.02192l226.075294 226.913941-226.075294 226.973843v-37.379698h-1.976811a29.771972 29.771972 0 0 0 1.976811-10.063765c0-16.533328-13.298547-29.951682-29.771971-29.951682H359.951405V391.940674a29.951682 29.951682 0 0 0-18.390333-27.675354 29.951682 29.951682 0 0 0-32.467623 6.469563L11.13412 669.892279a29.951682 29.951682 0 0 0 0 42.351678l297.959329 299.157397a29.951682 29.951682 0 0 0 32.467623 6.469563 29.831875 29.831875 0 0 0 18.390333-27.61545v-149.578699h625.810436a29.831875 29.831875 0 0 0 29.771972-29.951681 29.771972 29.771972 0 0 0-29.771972-29.891779z" fill="#000000" p-id="8457"></path></svg>