<?xml version="1.0" standalone="no"?><!DOCTYPE svg PUBLIC "-//W3C//DTD SVG 1.1//EN" "http://www.w3.org/Graphics/SVG/1.1/DTD/svg11.dtd"><svg t="1691137335564" class="icon" viewBox="0 0 1024 1024" version="1.1" xmlns="http://www.w3.org/2000/svg" p-id="5428" xmlns:xlink="http://www.w3.org/1999/xlink" width="200" height="200"><path d="M1008.002841 936.015452L830.434027 758.446638c65.588481-83.185391 102.382019-185.56741 102.382019-291.148867 0-188.766848-113.580053-358.337067-287.949429-431.924143C470.497241-36.61373 270.532359 3.379247 136.155959 136.155928 3.379278 270.532328-36.613698 470.497209 35.373659 644.866585c71.987357 174.369376 241.557576 287.949429 430.324424 287.949429 105.581457 0 209.563195-36.793538 291.148867-102.382019L936.015484 1008.00281c9.598314 9.598314 22.396067 15.99719 36.793538 15.99719 14.397471 0 27.195224-4.799157 36.793538-14.397471 19.196629-20.796348 19.196629-54.390448-1.599719-73.587077zM467.297802 832.033714C265.733202 832.033714 102.561859 668.862371 102.561859 467.297771c0-201.5646 163.171343-364.735943 364.735943-364.735943S832.033746 265.733171 832.033746 467.297771C830.434027 668.862371 667.262684 832.033714 467.297802 832.033714z m167.970501-409.528077h-335.941001c-25.595505 0-46.391852 19.196629-46.391852 44.792134 0 25.595505 20.796348 44.792133 46.391852 44.792133h335.941001c25.595505 0 46.391852-19.196629 46.391852-44.792133 0-25.595505-20.796348-44.792133-46.391852-44.792134z" fill="#707070" p-id="5429"></path></svg>