<?xml version="1.0" standalone="no"?><!DOCTYPE svg PUBLIC "-//W3C//DTD SVG 1.1//EN" "http://www.w3.org/Graphics/SVG/1.1/DTD/svg11.dtd"><svg t="1691137270717" class="icon" viewBox="0 0 1029 1024" version="1.1" xmlns="http://www.w3.org/2000/svg" p-id="3534" xmlns:xlink="http://www.w3.org/1999/xlink" width="200.9765625" height="200"><path d="M972.8 1024c-15.36 0-25.6-5.12-35.84-15.36l-163.84-163.84c-81.92 66.56-189.44 102.4-296.96 102.4-261.12 0-476.16-209.92-476.16-471.04S215.04 0 476.16 0s476.16 215.04 476.16 476.16c0 107.52-35.84 215.04-102.4 296.96l163.84 163.84c10.24 10.24 15.36 20.48 15.36 35.84 0 15.36-5.12 25.6-15.36 35.84-15.36 10.24-25.6 15.36-40.96 15.36zM476.16 102.4c-51.2 0-97.28 10.24-143.36 30.72-46.08 20.48-87.04 46.08-122.88 76.8-30.72 35.84-56.32 76.8-76.8 117.76-20.48 46.08-30.72 97.28-30.72 148.48s10.24 97.28 30.72 143.36c20.48 46.08 46.08 81.92 81.92 117.76 35.84 35.84 71.68 61.44 117.76 81.92 46.08 20.48 92.16 30.72 143.36 30.72s97.28-10.24 143.36-30.72c46.08-20.48 81.92-46.08 117.76-81.92 35.84-35.84 61.44-71.68 81.92-117.76 20.48-46.08 30.72-92.16 30.72-143.36 0-51.2-10.24-97.28-30.72-143.36-20.48-46.08-46.08-81.92-81.92-117.76-35.84-35.84-71.68-61.44-117.76-81.92-46.08-20.48-97.28-30.72-143.36-30.72z" fill="#707070" p-id="3535"></path><path d="M476.16 686.08c-30.72 0-51.2-25.6-51.2-51.2v-107.52H317.44c-30.72 0-51.2-25.6-51.2-51.2 0-30.72 25.6-51.2 51.2-51.2h107.52V317.44c0-30.72 25.6-51.2 51.2-51.2s51.2 25.6 51.2 51.2v107.52h107.52c30.72 0 51.2 25.6 51.2 51.2 0 30.72-25.6 51.2-51.2 51.2h-107.52v107.52c0 25.6-25.6 51.2-51.2 51.2z" fill="#707070" p-id="3536"></path></svg>